<?xml version="1.0" standalone="no"?>
<!DOCTYPE svg PUBLIC "-//W3C//DTD SVG 20010904//EN"
 "http://www.w3.org/TR/2001/REC-SVG-20010904/DTD/svg10.dtd">
<svg version="1.0" xmlns="http://www.w3.org/2000/svg"
 width="544.000000pt" height="1174.000000pt" viewBox="0 0 544.000000 1174.000000"
 preserveAspectRatio="xMidYMid meet">
<metadata>
Created by potrace 1.16, written by Peter Selinger 2001-2019
</metadata>
<g transform="translate(0.000000,1174.000000) scale(0.100000,-0.100000)"
fill="#242F65" stroke="none">
<path d="M2704 11654 c-17 -8 -87 -72 -155 -142 -68 -70 -207 -212 -309 -317
-102 -104 -453 -464 -780 -800 -327 -335 -752 -771 -945 -968 -192 -198 -360
-375 -372 -395 -59 -96 5 -226 120 -247 69 -13 111 13 247 153 69 70 208 213
310 317 103 105 453 465 780 800 720 739 1000 1025 1006 1025 2 0 4 -2460 4
-5466 l0 -5466 22 -40 c30 -54 77 -81 141 -81 66 -1 109 22 145 75 l27 42 2
5464 c1 3006 4 5466 5 5467 2 2 120 -117 263 -263 143 -147 424 -436 625 -642
202 -206 581 -595 844 -865 301 -309 490 -497 514 -508 74 -35 180 2 215 76
22 45 22 114 0 154 -16 29 -290 315 -868 903 -116 118 -538 552 -939 963 -401
411 -741 754 -757 762 -36 19 -106 19 -145 -1z"/>
</g>
</svg>
