<svg width="57" height="57" viewBox="0 0 57 57" fill="none" xmlns="http://www.w3.org/2000/svg">
<path d="M49.5 16.7432H46.875V14.9932C46.875 13.3687 46.2297 11.8108 45.081 10.6621C43.9324 9.51348 42.3745 8.86816 40.75 8.86816H9.25C7.62555 8.86816 6.06763 9.51348 4.91897 10.6621C3.77031 11.8108 3.125 13.3687 3.125 14.9932V34.2432C3.125 35.8676 3.77031 37.4255 4.91897 38.5742C6.06763 39.7229 7.62555 40.3682 9.25 40.3682H30.25V42.9932C30.25 44.6176 30.8953 46.1755 32.044 47.3242C33.1926 48.4729 34.7505 49.1182 36.375 49.1182H49.5C51.1245 49.1182 52.6824 48.4729 53.831 47.3242C54.9797 46.1755 55.625 44.6176 55.625 42.9932V22.8682C55.625 21.2437 54.9797 19.6858 53.831 18.5371C52.6824 17.3885 51.1245 16.7432 49.5 16.7432ZM9.25 35.1182C9.01794 35.1182 8.79538 35.026 8.63128 34.8619C8.46719 34.6978 8.375 34.4752 8.375 34.2432V14.9932C8.375 14.7611 8.46719 14.5385 8.63128 14.3744C8.79538 14.2104 9.01794 14.1182 9.25 14.1182H40.75C40.9821 14.1182 41.2046 14.2104 41.3687 14.3744C41.5328 14.5385 41.625 14.7611 41.625 14.9932V16.7432H36.375C34.7505 16.7432 33.1926 17.3885 32.044 18.5371C30.8953 19.6858 30.25 21.2437 30.25 22.8682V35.1182H9.25ZM50.375 42.9932C50.375 43.2252 50.2828 43.4478 50.1187 43.6119C49.9546 43.776 49.7321 43.8682 49.5 43.8682H36.375C36.1429 43.8682 35.9204 43.776 35.7563 43.6119C35.5922 43.4478 35.5 43.2252 35.5 42.9932V22.8682C35.5 22.6361 35.5922 22.4135 35.7563 22.2494C35.9204 22.0854 36.1429 21.9932 36.375 21.9932H49.5C49.7321 21.9932 49.9546 22.0854 50.1187 22.2494C50.2828 22.4135 50.375 22.6361 50.375 22.8682V42.9932ZM27.625 46.4932C27.625 47.1894 27.3484 47.857 26.8562 48.3493C26.3639 48.8416 25.6962 49.1182 25 49.1182H19.75C19.0538 49.1182 18.3861 48.8416 17.8938 48.3493C17.4016 47.857 17.125 47.1894 17.125 46.4932C17.125 45.797 17.4016 45.1293 17.8938 44.637C18.3861 44.1447 19.0538 43.8682 19.75 43.8682H25C25.6962 43.8682 26.3639 44.1447 26.8562 44.637C27.3484 45.1293 27.625 45.797 27.625 46.4932ZM46.875 28.1182C46.875 28.8144 46.5984 29.482 46.1062 29.9743C45.6139 30.4666 44.9462 30.7432 44.25 30.7432H41.625C40.9288 30.7432 40.2611 30.4666 39.7688 29.9743C39.2766 29.482 39 28.8144 39 28.1182C39 27.422 39.2766 26.7543 39.7688 26.262C40.2611 25.7697 40.9288 25.4932 41.625 25.4932H44.25C44.9462 25.4932 45.6139 25.7697 46.1062 26.262C46.5984 26.7543 46.875 27.422 46.875 28.1182Z" fill="#157EFB"/>
</svg>
