<svg width="57" height="57" viewBox="0 0 57 57" fill="none" xmlns="http://www.w3.org/2000/svg">
<path d="M28.5 45.3499L28.5233 45.3242" stroke="#157EFB" stroke-width="3" stroke-linecap="round" stroke-linejoin="round"/>
<path d="M42.5 42.9932V50.9266C42.5 51.1104 42.4638 51.2925 42.3934 51.4623C42.3231 51.6322 42.22 51.7865 42.0899 51.9165C41.9599 52.0465 41.8056 52.1497 41.6358 52.22C41.4659 52.2904 41.2838 52.3266 41.1 52.3266H15.9C15.7161 52.3266 15.5341 52.2904 15.3642 52.22C15.1944 52.1497 15.0401 52.0465 14.9101 51.9165C14.78 51.7865 14.6769 51.6322 14.6066 51.4623C14.5362 51.2925 14.5 51.1104 14.5 50.9266V42.9932M42.5 14.9932V7.05991C42.5 6.68861 42.3525 6.33251 42.0899 6.06996C41.8274 5.80741 41.4713 5.65991 41.1 5.65991H15.9C15.5287 5.65991 15.1726 5.80741 14.9101 6.06996C14.6475 6.33251 14.5 6.68861 14.5 7.05991V14.9932" stroke="#157EFB" stroke-width="3" stroke-linecap="round"/>
<path d="M36.6667 20.8267L44.8334 28.9933L36.6667 37.16M20.3334 20.8267L12.1667 28.9933L20.3334 37.16" stroke="#157EFB" stroke-width="3" stroke-linecap="round" stroke-linejoin="round"/>
</svg>
