<svg width="57" height="57" viewBox="0 0 57 57" fill="none" xmlns="http://www.w3.org/2000/svg">
<path d="M16.18 22.2601L8.09938 28.9932L16.18 35.7264C16.448 35.946 16.6699 36.2165 16.8328 36.5223C16.9957 36.8281 17.0965 37.1631 17.1293 37.508C17.1621 37.8529 17.1264 38.2009 17.024 38.532C16.9217 38.863 16.7548 39.1705 16.5331 39.4367C16.3113 39.7029 16.039 39.9226 15.732 40.0831C15.4249 40.2436 15.0891 40.3417 14.7439 40.3718C14.3987 40.4018 14.051 40.3633 13.7208 40.2583C13.3906 40.1533 13.0844 39.984 12.82 39.7601L2.32001 31.0101C2.02428 30.7638 1.78635 30.4554 1.62306 30.1069C1.45978 29.7583 1.37514 29.3781 1.37514 28.9932C1.37514 28.6083 1.45978 28.2282 1.62306 27.8796C1.78635 27.5311 2.02428 27.2227 2.32001 26.9764L12.82 18.2264C13.3557 17.7874 14.0431 17.5779 14.7325 17.6435C15.422 17.7091 16.0576 18.0445 16.5008 18.5766C16.9441 19.1087 17.1591 19.7945 17.099 20.4844C17.0389 21.1744 16.7086 21.8126 16.18 22.2601ZM54.68 26.9764L44.18 18.2264C43.9156 18.0025 43.6094 17.8332 43.2792 17.7282C42.949 17.6232 42.6013 17.5847 42.2561 17.6147C41.9109 17.6448 41.5751 17.7429 41.2681 17.9034C40.961 18.0638 40.6887 18.2835 40.4669 18.5498C40.2452 18.816 40.0783 19.1235 39.976 19.4545C39.8737 19.7855 39.8379 20.1335 39.8707 20.4785C39.9035 20.8234 40.0043 21.1584 40.1672 21.4642C40.3302 21.77 40.552 22.0405 40.82 22.2601L48.9006 28.9932L40.82 35.7264C40.552 35.946 40.3302 36.2165 40.1672 36.5223C40.0043 36.8281 39.9035 37.1631 39.8707 37.508C39.8379 37.8529 39.8737 38.2009 39.976 38.532C40.0783 38.863 40.2452 39.1705 40.4669 39.4367C40.6887 39.7029 40.961 39.9226 41.2681 40.0831C41.5751 40.2436 41.9109 40.3417 42.2561 40.3718C42.6013 40.4018 42.949 40.3633 43.2792 40.2583C43.6094 40.1533 43.9156 39.984 44.18 39.7601L54.68 31.0101C54.9757 30.7638 55.2137 30.4554 55.3769 30.1069C55.5402 29.7583 55.6249 29.3781 55.6249 28.9932C55.6249 28.6083 55.5402 28.2282 55.3769 27.8796C55.2137 27.5311 54.9757 27.2227 54.68 26.9764ZM36.3969 7.27574C36.0729 7.1579 35.7288 7.10505 35.3843 7.12021C35.0399 7.13538 34.7018 7.21825 34.3893 7.3641C34.0769 7.50996 33.7963 7.71593 33.5635 7.97026C33.3307 8.22459 33.1502 8.52229 33.0325 8.84637L19.0325 47.3464C18.7952 48.0005 18.8273 48.7221 19.1218 49.3526C19.4164 49.983 19.9492 50.4708 20.6031 50.7086C20.8902 50.8146 21.1939 50.8686 21.5 50.8682C22.039 50.8683 22.5649 50.7025 23.0063 50.3934C23.4478 50.0842 23.7834 49.6466 23.9675 49.1401L37.9675 10.6401C38.0853 10.3161 38.1382 9.97201 38.123 9.62755C38.1079 9.28309 38.025 8.94499 37.8791 8.63256C37.7333 8.32014 37.5273 8.03951 37.273 7.8067C37.0187 7.57389 36.721 7.39347 36.3969 7.27574Z" fill="#157EFB"/>
</svg>
