<svg width="57" height="57" viewBox="0 0 57 57" fill="none" xmlns="http://www.w3.org/2000/svg">
<path d="M9.83332 5.65991H33.1667V10.3266H9.83332V33.6599H5.16666V10.3266C5.16666 7.73658 7.24332 5.65991 9.83332 5.65991ZM19.1667 14.9932H42.5V19.6599H19.1667V42.9932H14.5V19.6599C14.5 17.0699 16.5767 14.9932 19.1667 14.9932ZM28.5 24.3266H47.1667C49.7567 24.3266 51.8333 26.4032 51.8333 28.9932V47.6599C51.8333 50.2499 49.7567 52.3266 47.1667 52.3266H28.5C25.91 52.3266 23.8333 50.2499 23.8333 47.6599V28.9932C23.8333 26.4032 25.91 24.3266 28.5 24.3266ZM33.1667 28.9932V47.6599L47.1667 38.3266L33.1667 28.9932Z" fill="#157EFB"/>
</svg>
