<svg width="57" height="57" viewBox="0 0 57 57" fill="none" xmlns="http://www.w3.org/2000/svg">
<path d="M7.96668 34.1779V10.3266C7.96668 9.0889 8.45835 7.90192 9.33352 7.02675C10.2087 6.15158 11.3957 5.65991 12.6333 5.65991H44.3667C45.6044 5.65991 46.7913 6.15158 47.6665 7.02675C48.5417 7.90192 49.0333 9.0889 49.0333 10.3266V34.1779M7.96668 34.1779H49.0333M7.96668 34.1779L4.51335 46.3906C4.31722 47.0845 4.28455 47.8144 4.41791 48.523C4.55128 49.2317 4.84704 49.8998 5.282 50.4749C5.71696 51.05 6.27928 51.5165 6.92483 51.8378C7.57038 52.1591 8.2816 52.3264 9.00268 52.3266H47.9973C48.7184 52.3264 49.4296 52.1591 50.0752 51.8378C50.7207 51.5165 51.2831 51.05 51.718 50.4749C52.153 49.8998 52.4488 49.2317 52.5821 48.523C52.7155 47.8144 52.6828 47.0845 52.4867 46.3906L49.0333 34.1779" stroke="#157EFB" stroke-width="3"/>
<path d="M26.1667 45.3265H30.8334M33.1667 14.9932L37.8334 19.6598L33.1667 24.3265M23.8334 14.9932L19.1667 19.6598L23.8334 24.3265" stroke="#157EFB" stroke-width="1.5" stroke-linecap="round" stroke-linejoin="round"/>
</svg>
